<svg width="48px" height="48px" viewBox="0 0 48 48" version="1.1" xmlns="http://www.w3.org/2000/svg" xmlns:xlink="http://www.w3.org/1999/xlink">
    <!-- Generator: Sketch 49.3 (51167) - http://www.bohemiancoding.com/sketch -->
    <desc>Created with Sketch.</desc>
    <defs>
        <path d="M-1,23 C-1,9.74562466 9.74474408,-1 23,-1 C36.2543753,-1 47,9.74562466 47,23 C47,36.2552559 36.2543753,47 23,47 C9.74474408,47 -1,36.2552559 -1,23 Z M18,22.9340948 C18,25.6592069 20.2089828,27.8681897 22.9340948,27.8681897 C25.6590259,27.8681897 27.8681897,25.6592069 27.8681897,22.9340948 C27.8681897,20.2091638 25.6590259,18 22.9340948,18 C20.2089828,18 18,20.2091638 18,22.9340948 Z" id="path-1"></path>
        <linearGradient x1="0%" y1="0%" x2="100%" y2="100%" id="linearGradient-3">
            <stop stop-color="#A11CF6" offset="0%"></stop>
            <stop stop-color="#680CEA" offset="100%"></stop>
        </linearGradient>
    </defs>
    <g id="Symbols" stroke="none" stroke-width="1" fill="none" fill-rule="evenodd">
        <g id="components/header" transform="translate(-24.000000, -12.000000)">
            <g id="nav" transform="translate(24.000000, 12.000000)">
                <g id="brand">
                    <g id="logo/mark/gradient" transform="translate(1.000000, 1.000000)">
                        <mask id="mask-2" fill="white">
                            <use xlink:href="#path-1"></use>
                        </mask>
                        <g id="Fill-115"></g>
                        <g id="logomark" stroke-width="1" fill-rule="evenodd" mask="url(#mask-2)" opacity="0.7" stroke="url(#linearGradient-3)">
                            <g transform="translate(1.000000, 1.000000)" stroke-width="2.84482759">
                                <path d="M10.9584466,11.1317724 C10.9584466,5.03625517 15.8999121,0.0949793103 21.9954293,0.0949793103 C28.0909466,0.0949793103 33.0324121,5.03625517 33.0324121,11.1317724 C33.0324121,17.2272897 28.0909466,22.1685655 21.9954293,22.1685655 C15.8999121,22.1685655 10.9584466,17.2272897 10.9584466,11.1317724 Z" id="Stroke-3"></path>
                                <path d="M6.50894655,22.1191793 C2.19865345,17.8088862 2.19865345,10.8208517 6.50894655,6.51055862 C10.8192397,2.20045517 17.8072741,2.20045517 22.1173776,6.51055862 C26.427481,10.8208517 26.427481,17.8088862 22.1173776,22.1191793 C17.8072741,26.4292828 10.8192397,26.4292828 6.50894655,22.1191793 Z" id="Stroke-5"></path>
                                <path d="M11.1317914,33.0347259 C5.03608448,33.0347259 0.0948086207,28.0932603 0.0948086207,21.9977431 C0.0948086207,15.9022259 5.03608448,10.9607603 11.1317914,10.9607603 C17.2273086,10.9607603 22.1685845,15.9022259 22.1685845,21.9977431 C22.1685845,28.0932603 17.2273086,33.0347259 11.1317914,33.0347259 Z" id="Stroke-7"></path>
                                <path d="M22.1190086,37.4842259 C17.8087155,41.794519 10.820681,41.794519 6.51038793,37.4842259 C2.20028448,33.1739328 2.20028448,26.1858983 6.51038793,21.8757948 C10.820681,17.5656914 17.8087155,17.5656914 22.1190086,21.8757948 C26.4293017,26.1858983 26.4293017,33.1739328 22.1190086,37.4842259 Z" id="Stroke-9"></path>
                                <path d="M33.0345552,32.861381 C33.0345552,38.9570879 28.0930897,43.8983638 21.9977621,43.8983638 C15.9022448,43.8983638 10.9607793,38.9570879 10.9607793,32.861381 C10.9607793,26.7658638 15.9022448,21.8245879 21.9977621,21.8245879 C28.0930897,21.8245879 33.0345552,26.7658638 33.0345552,32.861381 Z" id="Stroke-11"></path>
                                <path d="M37.4842259,21.8741448 C41.794519,26.1844379 41.794519,33.1724724 37.4842259,37.4827655 C33.1739328,41.792869 26.1858983,41.792869 21.8756052,37.4827655 C17.5655017,33.1724724 17.5655017,26.1844379 21.8756052,21.8741448 C26.1858983,17.5638517 33.1739328,17.5638517 37.4842259,21.8741448 Z" id="Stroke-13"></path>
                                <path d="M32.861381,10.9585983 C38.9568983,10.9585983 43.8981741,15.9000638 43.8981741,21.9953914 C43.8981741,28.0909086 38.9568983,33.0323741 32.861381,33.0323741 C26.7658638,33.0323741 21.8245879,28.0909086 21.8245879,21.9953914 C21.8245879,15.9000638 26.7658638,10.9585983 32.861381,10.9585983 Z" id="Stroke-15"></path>
                                <path d="M21.8739931,6.50892759 C26.1842862,2.19863448 33.1723207,2.19863448 37.4826138,6.50892759 C41.7927172,10.8192207 41.7927172,17.8072552 37.4826138,22.1175483 C33.1723207,26.4276517 26.1842862,26.4276517 21.8739931,22.1175483 C17.5638897,17.8072552 17.5638897,10.8192207 21.8739931,6.50892759 Z" id="Stroke-17"></path>
                                <path d="M15.16735,15.3404862 C15.16735,11.5693828 18.2244017,8.51233103 21.9955052,8.51233103 C25.7666086,8.51233103 28.8236603,11.5693828 28.8236603,15.3404862 C28.8236603,19.1115897 25.7666086,22.1686414 21.9955052,22.1686414 C18.2244017,22.1686414 15.16735,19.1115897 15.16735,15.3404862 Z" id="Stroke-19"></path>
                                <path d="M12.4610466,22.1191793 C9.79430517,19.4524379 9.79430517,15.1292483 12.4610466,12.4626966 C15.1275983,9.79595517 19.4507879,9.79595517 22.1173397,12.4626966 C24.784081,15.1292483 24.784081,19.4524379 22.1173397,22.1191793 C19.4507879,24.785731 15.1275983,24.785731 12.4610466,22.1191793 Z" id="Stroke-21"></path>
                                <path d="M15.3405052,28.8258224 C11.5694017,28.8258224 8.51235,25.7687707 8.51235,21.9976672 C8.51235,18.2265638 11.5694017,15.1695121 15.3405052,15.1695121 C19.1116086,15.1695121 22.1686603,18.2265638 22.1686603,21.9976672 C22.1686603,25.7687707 19.1116086,28.8258224 15.3405052,28.8258224 Z" id="Stroke-23"></path>
                                <path d="M22.1190086,31.5321259 C19.4524569,34.1988672 15.1292672,34.1988672 12.4625259,31.5321259 C9.79597414,28.8655741 9.79597414,24.5423845 12.4625259,21.8758328 C15.1292672,19.2090914 19.4524569,19.2090914 22.1190086,21.8758328 C24.78575,24.5423845 24.78575,28.8655741 22.1190086,31.5321259 Z" id="Stroke-25"></path>
                                <path d="M28.8258414,28.6526483 C28.8258414,32.4237517 25.7687897,35.4808034 21.9976862,35.4808034 C18.2265828,35.4808034 15.169531,32.4237517 15.169531,28.6526483 C15.169531,24.8815448 18.2265828,21.8244931 21.9976862,21.8244931 C25.7687897,21.8244931 28.8258414,24.8815448 28.8258414,28.6526483 Z" id="Stroke-27"></path>
                                <path d="M31.5321448,21.8741448 C34.1986966,24.5406966 34.1986966,28.8638862 31.5321448,31.5306276 C28.8654034,34.1971793 24.5424034,34.1971793 21.8756621,31.5306276 C19.2091103,28.8638862 19.2091103,24.5406966 21.8756621,21.8741448 C24.5424034,19.2074034 28.8654034,19.2074034 31.5321448,21.8741448 Z" id="Stroke-29"></path>
                                <path d="M28.6526672,15.167331 C32.4237707,15.167331 35.4808224,18.2243828 35.4808224,21.9954862 C35.4808224,25.7665897 32.4237707,28.8236414 28.6526672,28.8236414 C24.8815638,28.8236414 21.8245121,25.7665897 21.8245121,21.9954862 C21.8245121,18.2243828 24.8815638,15.167331 28.6526672,15.167331 Z" id="Stroke-31"></path>
                                <path d="M21.8739931,12.4610276 C24.5407345,9.79447586 28.8639241,9.79447586 31.5304759,12.4610276 C34.1972172,15.127769 34.1972172,19.450769 31.5304759,22.1175103 C28.8639241,24.7840621 24.5407345,24.7840621 21.8739931,22.1175103 C19.2074414,19.450769 19.2074414,15.127769 21.8739931,12.4610276 Z" id="Stroke-33"></path>
                                <path d="M19.386419,19.5595741 C19.386419,18.1185741 20.5545052,16.9504879 21.9955052,16.9504879 C23.4363155,16.9504879 24.6045914,18.1185741 24.6045914,19.5595741 C24.6045914,21.0005741 23.4363155,22.1686603 21.9955052,22.1686603 C20.5545052,22.1686603 19.386419,21.0005741 19.386419,19.5595741 Z" id="Stroke-35"></path>
                                <path d="M18.4275983,22.1191793 C17.4087707,21.1001621 17.4087707,19.4482655 18.4275983,18.4292483 C19.4466155,17.4104207 21.0985121,17.4104207 22.1173397,18.4292483 C23.1363569,19.4482655 23.1363569,21.1001621 22.1173397,22.1191793 C21.0985121,23.1380069 19.4466155,23.1380069 18.4275983,22.1191793 Z" id="Stroke-37"></path>
                                <path d="M19.5595931,24.6067345 C18.1185931,24.6067345 16.9505069,23.4386483 16.9505069,21.9976483 C16.9505069,20.5568379 18.1185931,19.3885621 19.5595931,19.3885621 C21.0005931,19.3885621 22.1686793,20.5568379 22.1686793,21.9976483 C22.1686793,23.4386483 21.0005931,24.6067345 19.5595931,24.6067345 Z" id="Stroke-39"></path>
                                <path d="M22.1190086,25.5655741 C21.100181,26.5844017 19.4480948,26.5844017 18.4292672,25.5655741 C17.4104397,24.5465569 17.4104397,22.8946603 18.4292672,21.8758328 C19.4480948,20.8568155 21.100181,20.8568155 22.1190086,21.8758328 C23.1378362,22.8946603 23.1378362,24.5465569 22.1190086,25.5655741 Z" id="Stroke-41"></path>
                                <path d="M24.6067534,24.4335793 C24.6067534,25.8745793 23.4386672,27.0426655 21.9976672,27.0426655 C20.5568569,27.0426655 19.388581,25.8745793 19.388581,24.4335793 C19.388581,22.9925793 20.5568569,21.8244931 21.9976672,21.8244931 C23.4386672,21.8244931 24.6067534,22.9925793 24.6067534,24.4335793 Z" id="Stroke-43"></path>
                                <path d="M25.5654034,21.8741448 C26.584231,22.8929724 26.584231,24.5450586 25.5654034,25.5638862 C24.5465759,26.5827138 22.8944897,26.5827138 21.8756621,25.5638862 C20.8568345,24.5450586 20.8568345,22.8929724 21.8756621,21.8741448 C22.8944897,20.8553172 24.5465759,20.8553172 25.5654034,21.8741448 Z" id="Stroke-45"></path>
                                <path d="M24.4335793,19.3864 C25.8745793,19.3864 27.0426655,20.5544862 27.0426655,21.9954862 C27.0426655,23.4362966 25.8745793,24.6045724 24.4335793,24.6045724 C22.9925793,24.6045724 21.8244931,23.4362966 21.8244931,21.9954862 C21.8244931,20.5544862 22.9925793,19.3864 24.4335793,19.3864 Z" id="Stroke-47"></path>
                                <path d="M21.8739931,18.427769 C22.8930103,17.4089414 24.5449069,17.4089414 25.5639241,18.427769 C26.5827517,19.4465966 26.5827517,21.0986828 25.5639241,22.1175103 C24.5449069,23.1363379 22.8930103,23.1363379 21.8739931,22.1175103 C20.8551655,21.0986828 20.8551655,19.4465966 21.8739931,18.427769 Z" id="Stroke-49"></path>
                                <path d="M20.3899034,20.5630586 C20.3899034,19.6764207 21.1086966,18.9576276 21.9955241,18.9576276 C22.8821621,18.9576276 23.6011448,19.6764207 23.6011448,20.5630586 C23.6011448,21.4498862 22.8821621,22.1686793 21.9955241,22.1686793 C21.1086966,22.1686793 20.3899034,21.4498862 20.3899034,20.5630586 Z" id="Stroke-51"></path>
                                <path d="M19.8468638,22.1191793 C19.2196741,21.4919897 19.2196741,20.4754379 19.8468638,19.8484379 C20.4738638,19.2214379 21.4904155,19.2214379 22.1174155,19.8484379 C22.7444155,20.4754379 22.7444155,21.4919897 22.1174155,22.1191793 C21.4904155,22.7461793 20.4738638,22.7461793 19.8468638,22.1191793 Z" id="Stroke-53"></path>
                                <path d="M20.5630586,23.603269 C19.676231,23.603269 18.9574379,22.8844759 18.9574379,21.9976483 C18.9574379,21.1110103 19.676231,20.3920276 20.5630586,20.3920276 C21.4498862,20.3920276 22.1686793,21.1110103 22.1686793,21.9976483 C22.1686793,22.8844759 21.4498862,23.603269 20.5630586,23.603269 Z" id="Stroke-55"></path>
                                <path d="M22.1190086,24.1463086 C21.4920086,24.7734983 20.4754569,24.7734983 19.8482672,24.1463086 C19.2214569,23.5193086 19.2214569,22.5027569 19.8482672,21.8757569 C20.4754569,21.2487569 21.4920086,21.2487569 22.1190086,21.8757569 C22.7461983,22.5027569 22.7461983,23.5193086 22.1190086,24.1463086 Z" id="Stroke-57"></path>
                                <path d="M23.6032879,23.4300948 C23.6032879,24.3169224 22.8844948,25.0357155 21.9976672,25.0357155 C21.1108397,25.0357155 20.3920466,24.3169224 20.3920466,23.4300948 C20.3920466,22.5432672 21.1108397,21.8244741 21.9976672,21.8244741 C22.8844948,21.8244741 23.6032879,22.5432672 23.6032879,23.4300948 Z" id="Stroke-59"></path>
                                <path d="M24.1463276,21.8741448 C24.7733276,22.5011448 24.7733276,23.5176966 24.1463276,24.1448862 C23.5191379,24.7716966 22.5025862,24.7716966 21.8755862,24.1448862 C21.2487759,23.5176966 21.2487759,22.5011448 21.8755862,21.8741448 C22.5025862,21.2469552 23.5191379,21.2469552 24.1463276,21.8741448 Z" id="Stroke-61"></path>
                                <path d="M23.4301138,20.3898845 C24.3167517,20.3898845 25.0357345,21.1086776 25.0357345,21.9955052 C25.0357345,22.8823328 24.3167517,23.6011259 23.4301138,23.6011259 C22.5432862,23.6011259 21.8244931,22.8823328 21.8244931,21.9955052 C21.8244931,21.1086776 22.5432862,20.3898845 23.4301138,20.3898845 Z" id="Stroke-63"></path>
                                <path d="M21.8739931,19.8468448 C22.5011828,19.2198448 23.5177345,19.2198448 24.1447345,19.8468448 C24.7717345,20.4740345 24.7717345,21.4905862 24.1447345,22.1175862 C23.5177345,22.7443966 22.5011828,22.7443966 21.8739931,22.1175862 C21.2469931,21.4905862 21.2469931,20.4740345 21.8739931,19.8468448 Z" id="Stroke-65"></path>
                                <path d="M20.9920207,21.1651759 C20.9920207,20.6110034 21.4411241,20.1617103 21.9954862,20.1617103 C22.5496586,20.1617103 22.9989517,20.6110034 22.9989517,21.1651759 C22.9989517,21.7195379 22.5496586,22.1686414 21.9954862,22.1686414 C21.4411241,22.1686414 20.9920207,21.7195379 20.9920207,21.1651759 Z" id="Stroke-67"></path>
                                <path d="M20.6982638,22.1191793 C20.3064362,21.7273517 20.3064362,21.0918172 20.6982638,20.6999897 C21.0900914,20.3079724 21.7256259,20.3079724 22.1172638,20.6999897 C22.509281,21.0918172 22.509281,21.7273517 22.1172638,22.1191793 C21.7256259,22.5108172 21.0900914,22.5108172 20.6982638,22.1191793 Z" id="Stroke-69"></path>
                                <path d="M21.1651948,23.0011517 C20.6110224,23.0011517 20.1617293,22.5520483 20.1617293,21.9976862 C20.1617293,21.4435138 20.6110224,20.9942207 21.1651948,20.9942207 C21.7193672,20.9942207 22.1686603,21.4435138 22.1686603,21.9976862 C22.1686603,22.5520483 21.7193672,23.0011517 21.1651948,23.0011517 Z" id="Stroke-71"></path>
                                <path d="M22.1190086,23.2948897 C21.727181,23.6867172 21.0918362,23.6867172 20.7000086,23.2948897 C20.3079914,22.9030621 20.3079914,22.2675276 20.7000086,21.8758897 C21.0918362,21.4838724 21.727181,21.4838724 22.1190086,21.8758897 C22.5108362,22.2675276 22.5108362,22.9030621 22.1190086,23.2948897 Z" id="Stroke-73"></path>
                                <path d="M23.0011707,22.8279776 C23.0011707,23.38215 22.5518776,23.8314431 21.9977052,23.8314431 C21.4435328,23.8314431 20.9942397,23.38215 20.9942397,22.8279776 C20.9942397,22.2738052 21.4435328,21.8245121 21.9977052,21.8245121 C22.5518776,21.8245121 23.0011707,22.2738052 23.0011707,22.8279776 Z" id="Stroke-75"></path>
                                <path d="M23.2947379,21.8741448 C23.6865655,22.2659724 23.6865655,22.9013172 23.2947379,23.2931448 C22.9031,23.6851621 22.2675655,23.6851621 21.8757379,23.2931448 C21.4837207,22.9013172 21.4837207,22.2659724 21.8757379,21.8741448 C22.2675655,21.4823172 22.9031,21.4823172 23.2947379,21.8741448 Z" id="Stroke-77"></path>
                                <path d="M22.8279966,20.9920017 C23.382169,20.9920017 23.8314621,21.4412948 23.8314621,21.9954672 C23.8314621,22.5496397 23.382169,22.9989328 22.8279966,22.9989328 C22.2736345,22.9989328 21.824531,22.5496397 21.824531,21.9954672 C21.824531,21.4412948 22.2736345,20.9920017 22.8279966,20.9920017 Z" id="Stroke-79"></path>
                                <path d="M21.8739931,20.6984345 C22.2658207,20.3066069 22.9013552,20.3066069 23.2931828,20.6984345 C23.6852,21.0902621 23.6852,21.7256069 23.2931828,22.1174345 C22.9013552,22.5094517 22.2658207,22.5094517 21.8739931,22.1174345 C21.4823552,21.7256069 21.4823552,21.0902621 21.8739931,20.6984345 Z" id="Stroke-81"></path>
                                <path d="M21.4194845,21.5928103 C21.4194845,21.2747586 21.6772259,21.0170172 21.9954672,21.0170172 C22.313519,21.0170172 22.5712603,21.2747586 22.5712603,21.5928103 C22.5712603,21.9108621 22.313519,22.1686034 21.9954672,22.1686034 C21.6772259,22.1686034 21.4194845,21.9108621 21.4194845,21.5928103 Z" id="Stroke-83"></path>
                                <path d="M21.3029793,22.1191793 C21.0780483,21.8940586 21.0780483,21.529731 21.3029793,21.3046103 C21.5281,21.079869 21.8924276,21.079869 22.1173586,21.3046103 C22.3422897,21.529731 22.3422897,21.8940586 22.1173586,22.1191793 C21.8924276,22.3441103 21.5281,22.3441103 21.3029793,22.1191793 Z" id="Stroke-85"></path>
                                <path d="M21.5928293,22.5736879 C21.2747776,22.5736879 21.0168466,22.3159466 21.0168466,21.9977052 C21.0168466,21.6796534 21.2747776,21.4219121 21.5928293,21.4219121 C21.910881,21.4219121 22.1686224,21.6796534 22.1686224,21.9977052 C22.1686224,22.3159466 21.910881,22.5736879 21.5928293,22.5736879 Z" id="Stroke-87"></path>
                                <path d="M22.1190086,22.6901931 C21.8940776,22.9151241 21.5295603,22.9151241 21.3046293,22.6901931 C21.0798879,22.4650724 21.0798879,22.1007448 21.3046293,21.8758138 C21.5295603,21.6508828 21.8940776,21.6508828 22.1190086,21.8758138 C22.3439397,22.1007448 22.3439397,22.4650724 22.1190086,22.6901931 Z" id="Stroke-89"></path>
                                <path d="M22.5735172,22.4003431 C22.5735172,22.7183948 22.3157759,22.9763259 21.9977241,22.9763259 C21.6796724,22.9763259 21.421931,22.7183948 21.421931,22.4003431 C21.421931,22.0822914 21.6796724,21.82455 21.9977241,21.82455 C22.3157759,21.82455 22.5735172,22.0822914 22.5735172,22.4003431 Z" id="Stroke-91"></path>
                                <path d="M22.6900224,21.8741448 C22.9149534,22.0990759 22.9149534,22.4635931 22.6900224,22.6885241 C22.4650914,22.9132655 22.1005741,22.9132655 21.8756431,22.6885241 C21.6509017,22.4635931 21.6509017,22.0990759 21.8756431,21.8741448 C22.1005741,21.6492138 22.4650914,21.6492138 22.6900224,21.8741448 Z" id="Stroke-93"></path>
                                <path d="M22.4003431,21.4196552 C22.7183948,21.4196552 22.9761362,21.6773966 22.9761362,21.9954483 C22.9761362,22.3135 22.7183948,22.5712414 22.4003431,22.5712414 C22.0822914,22.5712414 21.82455,22.3135 21.82455,21.9954483 C21.82455,21.6773966 22.0822914,21.4196552 22.4003431,21.4196552 Z" id="Stroke-95"></path>
                                <path d="M21.8739931,21.30315 C22.0991138,21.078219 22.4634414,21.078219 22.6885621,21.30315 C22.9133034,21.528081 22.9133034,21.8925983 22.6885621,22.1175293 C22.4634414,22.3422707 22.0991138,22.3422707 21.8739931,22.1175293 C21.6490621,21.8925983 21.6490621,21.528081 21.8739931,21.30315 Z" id="Stroke-97"></path>
                                <path d="M21.5939483,21.7672931 C21.5939483,21.5455862 21.7737414,21.3659828 21.9954483,21.3659828 C22.2171552,21.3659828 22.3967586,21.5455862 22.3967586,21.7672931 C22.3967586,21.989 22.2171552,22.1686034 21.9954483,22.1686034 C21.7737414,22.1686034 21.5939483,21.989 21.5939483,21.7672931 Z" id="Stroke-99"></path>
                                <path d="M21.5498724,22.1191793 C21.3930276,21.9623345 21.3930276,21.7081966 21.5498724,21.5515414 C21.7065276,21.3946966 21.9606655,21.3946966 22.1173207,21.5515414 C22.2741655,21.7081966 22.2741655,21.9623345 22.1173207,22.1191793 C21.9606655,22.2758345 21.7065276,22.2758345 21.5498724,22.1191793 Z" id="Stroke-101"></path>
                                <path d="M21.7673121,22.3992241 C21.5456052,22.3992241 21.3658121,22.219431 21.3658121,21.9977241 C21.3658121,21.7760172 21.5456052,21.5964138 21.7673121,21.5964138 C21.989019,21.5964138 22.1686224,21.7760172 22.1686224,21.9977241 C22.1686224,22.219431 21.989019,22.3992241 21.7673121,22.3992241 Z" id="Stroke-103"></path>
                                <path d="M22.1190086,22.4433 C21.9623534,22.6001448 21.7082155,22.6001448 21.5513707,22.4433 C21.3947155,22.2866448 21.3947155,22.0325069 21.5513707,21.8758517 C21.7082155,21.7190069 21.9623534,21.7190069 22.1190086,21.8758517 C22.2756638,22.0325069 22.2756638,22.2866448 22.1190086,22.4433 Z" id="Stroke-105"></path>
                                <path d="M22.3990534,22.2258603 C22.3990534,22.4475672 22.21945,22.6273603 21.9977431,22.6273603 C21.7760362,22.6273603 21.5964328,22.4475672 21.5964328,22.2258603 C21.5964328,22.0041534 21.7760362,21.82455 21.9977431,21.82455 C22.21945,21.82455 22.3990534,22.0041534 22.3990534,22.2258603 Z" id="Stroke-107"></path>
                                <path d="M22.443319,21.8741448 C22.5999741,22.0308 22.5999741,22.2849379 22.443319,22.4417828 C22.2866638,22.5984379 22.0323362,22.5984379 21.875681,22.4417828 C21.7190259,22.2849379 21.7190259,22.0308 21.875681,21.8741448 C22.0323362,21.7174897 22.2866638,21.7174897 22.443319,21.8741448 Z" id="Stroke-109"></path>
                                <path d="M22.2258793,21.594119 C22.4475862,21.594119 22.6271897,21.7737224 22.6271897,21.9954293 C22.6271897,22.2171362 22.4475862,22.3967397 22.2258793,22.3967397 C22.0041724,22.3967397 21.824569,22.2171362 21.824569,21.9954293 C21.824569,21.7737224 22.0041724,21.594119 22.2258793,21.594119 Z" id="Stroke-111"></path>
                                <path d="M21.8739931,21.5498534 C22.0308379,21.3931983 22.2849759,21.3931983 22.441631,21.5498534 C22.5984759,21.7065086 22.5984759,21.9608362 22.441631,22.1174914 C22.2849759,22.2741466 22.0308379,22.2741466 21.8739931,22.1174914 C21.7173379,21.9608362 21.7173379,21.7065086 21.8739931,21.5498534 Z" id="Stroke-113"></path>
                            </g>
                        </g>
                    </g>
                </g>
            </g>
        </g>
    </g>
</svg>
