<svg id="Layer_1" data-name="Layer 1" xmlns="http://www.w3.org/2000/svg" viewBox="0 0 1034.59 245.96"><path d="M123,0A65.71,65.71,0,0,0,95.85,125.55a27.27,27.27,0,0,1,3-15.25,51,51,0,0,1-11.72-8.76,50.7,50.7,0,1,1,60,8.73,27.31,27.31,0,0,1,3,15.23,65.77,65.77,0,0,0,38.55-59.81A65.69,65.69,0,0,0,123,0Z" fill="#fff" opacity="0.7"/><path d="M117,36a65.78,65.78,0,0,0-15,69.56c.54-.64,1.1-1.27,1.7-1.87A27.16,27.16,0,0,1,114.91,97,50.7,50.7,0,1,1,149,131.05a27.08,27.08,0,0,1-6.77,11.2c-.6.6-1.22,1.17-1.86,1.7A65.69,65.69,0,1,0,117,36Z" fill="#fff" opacity="0.7"/><path d="M36,36A65.68,65.68,0,0,0,105.58,144a24.74,24.74,0,0,1-1.87-1.7A27.16,27.16,0,0,1,97,131.05,50.69,50.69,0,1,1,131.05,97a27,27,0,0,1,11.2,6.76c.6.6,1.17,1.22,1.7,1.86A65.68,65.68,0,0,0,36,36Z" fill="#fff" opacity="0.7"/><path d="M110.3,147.11a50.72,50.72,0,1,1,0-48.25,27.39,27.39,0,0,1,15.23-3,65.54,65.54,0,1,0,0,54.28A27.37,27.37,0,0,1,110.3,147.11Z" fill="#fff" opacity="0.7"/><path d="M142.25,142.25a27,27,0,0,1-11.2,6.76A50.7,50.7,0,1,1,97,114.92a27,27,0,0,1,6.76-11.21c.6-.6,1.22-1.16,1.86-1.69A65.69,65.69,0,1,0,144,140.39,24.62,24.62,0,0,1,142.25,142.25Z" fill="#fff" opacity="0.7"/><path d="M147.1,135.69a50.59,50.59,0,1,1-48.25,0,27.29,27.29,0,0,1-3-15.25,65.74,65.74,0,1,0,54.27,0A27.31,27.31,0,0,1,147.1,135.69Z" fill="#fff" opacity="0.7"/><path d="M140.39,102c.64.54,1.26,1.1,1.86,1.7a27,27,0,0,1,6.76,11.2A50.7,50.7,0,1,1,114.92,149a27.18,27.18,0,0,1-11.21-6.77c-.6-.6-1.16-1.22-1.69-1.86A65.69,65.69,0,1,0,140.39,102Z" fill="#fff" opacity="0.7"/><path d="M180.27,57.28a65.77,65.77,0,0,0-59.81,38.57,27.3,27.3,0,0,1,15.23,3,50.69,50.69,0,1,1,0,48.24,27.27,27.27,0,0,1-15.22,3,65.68,65.68,0,1,0,59.8-92.84Z" fill="#fff" opacity="0.7"/><path d="M123,44.38A43.56,43.56,0,0,0,79.47,87.89h0a43.25,43.25,0,0,0,12.74,30.76,45.83,45.83,0,0,0,3.54,3.17,27.21,27.21,0,0,1,5.59-15.39,28.28,28.28,0,0,1-6.87-18.54h0a28.51,28.51,0,1,1,50.15,18.53,27.21,27.21,0,0,1,5.59,15.39q1.83-1.49,3.53-3.16A43.51,43.51,0,0,0,123,44.38Z" fill="#fff" opacity="0.7"/><path d="M117,67.4a43.41,43.41,0,0,0-12.45,35.49A27.06,27.06,0,0,1,119.4,96,28.5,28.5,0,1,1,150,126.56a27.09,27.09,0,0,1-6.92,14.82A43.49,43.49,0,1,0,117,67.4Z" fill="#fff" opacity="0.7"/><path d="M158.08,79.47h0a43.44,43.44,0,0,0-33.9,16.29,27.08,27.08,0,0,1,15.37,5.59,28.49,28.49,0,1,1,0,43.27,27.08,27.08,0,0,1-15.38,5.59,43.5,43.5,0,1,0,33.92-70.74Z" fill="#fff" opacity="0.7"/><path d="M143.08,104.58A27,27,0,0,1,150,119.4,28.5,28.5,0,1,1,119.4,150a27.13,27.13,0,0,1-14.82-6.92,43.51,43.51,0,1,0,38.5-38.5Z" fill="#fff" opacity="0.7"/><path d="M144.63,139.54a28.51,28.51,0,1,1-43.29,0,27.07,27.07,0,0,1-5.58-15.38,40.45,40.45,0,0,0-3.53,3.16,43.49,43.49,0,1,0,74.26,30.76h0a43.19,43.19,0,0,0-12.74-30.76,45.83,45.83,0,0,0-3.54-3.17A27.2,27.2,0,0,1,144.63,139.54Z" fill="#fff" opacity="0.7"/><path d="M126.57,150A28.5,28.5,0,1,1,96,119.41a27.11,27.11,0,0,1,6.91-14.83,43.5,43.5,0,1,0,38.51,38.5A27.16,27.16,0,0,1,126.57,150Z" fill="#fff" opacity="0.7"/><path d="M106.42,144.62a28.37,28.37,0,0,1-18.53,6.87h0a28.51,28.51,0,1,1,18.52-50.14,27.12,27.12,0,0,1,15.37-5.59,43.49,43.49,0,1,0-33.89,70.73h0a43.34,43.34,0,0,0,30.74-12.76,42.2,42.2,0,0,0,3.16-3.52A27.19,27.19,0,0,1,106.42,144.62Z" fill="#fff" opacity="0.7"/><path d="M67.4,67.41a43.48,43.48,0,0,0,35.49,74A27.09,27.09,0,0,1,96,126.57,28.5,28.5,0,1,1,126.56,96a27.08,27.08,0,0,1,14.82,6.91,43.48,43.48,0,0,0-74-35.47Z" fill="#fff" opacity="0.7"/><path d="M95.73,123A27.25,27.25,0,0,1,123,95.73c.69,0,1.36,0,2,.08A21.23,21.23,0,0,0,95.81,125C95.76,124.36,95.73,123.68,95.73,123Z" fill="#fff" opacity="0.7"/><g opacity="0.7"><path d="M103.71,142.25a27.26,27.26,0,0,1,0-38.54c.48-.48,1-.94,1.5-1.38a21.23,21.23,0,0,0,0,41.32C104.71,143.21,104.2,142.74,103.71,142.25Z" fill="#fff"/></g><g opacity="0.7"><path d="M123,150.24A27.26,27.26,0,0,1,95.73,123c0-.68,0-1.36.08-2A21.23,21.23,0,0,0,125,150.15C124.36,150.2,123.68,150.24,123,150.24Z" fill="#fff"/></g><g opacity="0.7"><path d="M142.25,142.25a27.24,27.24,0,0,1-38.54,0c-.48-.48-.94-1-1.38-1.49a21.23,21.23,0,0,0,41.32,0C143.21,141.25,142.74,141.76,142.25,142.25Z" fill="#fff"/></g><g opacity="0.7"><path d="M150.24,123A27.27,27.27,0,0,1,123,150.24c-.68,0-1.36,0-2-.09a21.23,21.23,0,0,0,29.2-29.23C150.2,121.6,150.24,122.29,150.24,123Z" fill="#fff"/></g><g opacity="0.7"><path d="M142.25,103.71a27.24,27.24,0,0,1,0,38.54c-.48.49-1,.94-1.49,1.38a21.23,21.23,0,0,0,0-41.32C141.25,102.76,141.76,103.22,142.25,103.71Z" fill="#fff"/></g><g opacity="0.7"><path d="M123,95.73A27.26,27.26,0,0,1,150.24,123c0,.69,0,1.36-.09,2a21.23,21.23,0,0,0-29.23-29.21C121.6,95.76,122.29,95.73,123,95.73Z" fill="#fff"/></g><g opacity="0.7"><path d="M103.71,103.71a27.26,27.26,0,0,1,38.54,0c.49.48.94,1,1.38,1.5a21.23,21.23,0,0,0-41.32,0C102.76,104.71,103.22,104.2,103.71,103.71Z" fill="#fff"/></g><path d="M421.55,123.67c0,24.31-4.87,38.07-15.76,45.61V170l18.27-.67v13.08h-61.2c-42.77,0-58.36-13.75-58.36-58.69s15.59-60,58.52-60C406.29,63.63,421.55,78.73,421.55,123.67ZM363,169.61c33.38,0,42.27-10.39,42.27-45.94,0-35.39-8.89-47.29-42.27-47.29s-42.25,11.9-42.25,47.29C320.77,159.22,329.66,169.61,363,169.61Z" fill="#fff"/><path d="M451.57,130.37h55v12.75h-55Z" fill="#fff"/><path d="M584.72,182.36c-39.24,0-49-26.16-49-58.86S545.32,65,585.56,65H631V77.72H590.76C561.41,77.72,552,91.63,552,123.5s9.07,46.11,37.9,46.11h42.77v12.75Z" fill="#fff"/><path d="M701.78,182.36V77.72H654.33V65H764.84V77.72H717.38V182.36Z" fill="#fff"/><path d="M789.83,82.75C789.83,70.17,796,65,807.1,65h54.33c21.63,0,28.51,13.76,28.51,35.55,0,22.48-6.38,37.41-26.66,37.41h-19v.83l48.14,43.6h-20.8L826.72,141.1c-2.18-2-4.36-4.52-4.36-7.37v-2.68c0-3.53,2.52-5.88,7-5.88h28.68c14.25,0,15.59-10.39,15.59-24.65,0-14.59-2.35-22.8-18.11-22.8H813.81c-5.37,0-8.39,1.67-8.39,8v96.59H789.83Z" fill="#fff"/><path d="M939.08,182.36c-8.56,0-14.92-3.35-14.92-14.08V65h15.59v97.6c0,5.19,1.68,7,7.38,7h65.06v12.75Z" fill="#fff"/><path d="M1012.47,73.94c0-8,3-11.06,11.16-11.06,7.68,0,11,2.44,11,11.06,0,8.3-3.17,11.32-11.58,11.32C1015.74,85.26,1012.47,82.14,1012.47,73.94Zm20,.26c0-6.55-1.82-9.56-8.67-9.56-6.23,0-9.3,1.72-9.3,9.19,0,6.44,1.67,9.66,8.42,9.66C1029.55,83.49,1032.51,81.72,1032.51,74.2Zm-14.49,6V69.32c0-.94.21-1.77,2.24-1.77h5.14c2.64,0,3.63,1.14,3.63,4,0,3.53-1.76,3.79-2.75,3.79H1025l4.72,4.78h-2.8l-4.2-4.26a1.43,1.43,0,0,1-.63-1.3c0-.93.68-.93,1.09-.93H1025c.73,0,1.87,0,1.87-1V70.82a1.48,1.48,0,0,0-1.66-1.45H1021c-.62,0-.88.1-.88.93v9.87Z" fill="#fff"/></svg>